<svg width="303" height="90" viewBox="0 0 303 90" fill="none" xmlns="http://www.w3.org/2000/svg">
<g clip-path="url(#clip0_1_159)">
<path d="M130.019 52.2129L131.055 58.5983H137.112L130.999 23.4016H122.213L116.103 58.5983H121.613L122.65 52.2129H130.015H130.019ZM126.31 29.6369L129.201 47.4379H123.415L126.306 29.6369H126.31Z" fill="url(#paint0_linear_1_159)"/>
<path d="M163.632 58.5983H169.798V23.4016H164.45V44.4686L158.283 23.4016H150.756V58.5983H156.158V33.1055L163.632 58.5983Z" fill="url(#paint1_linear_1_159)"/>
<path d="M103.879 28.4319V23.4016H88V58.5983H94.0043V44.0669H101.75V39.0404H94.0043V28.4319H103.879Z" fill="url(#paint2_linear_1_159)"/>
<path d="M235.935 50.152V31.848C235.935 26.2171 232.717 23 226.822 23C220.927 23 217.708 26.2171 217.708 31.848V50.1483C217.708 55.7791 220.927 58.9962 226.822 58.9962C232.717 58.9962 235.935 55.7791 235.935 50.1483V50.152ZM223.712 50.5049V31.4989C223.712 28.9837 224.914 28.0302 226.822 28.0302C228.729 28.0302 229.931 28.9837 229.931 31.4989V50.5049C229.931 53.02 228.729 53.9735 226.822 53.9735C224.914 53.9735 223.712 53.02 223.712 50.5049Z" fill="url(#paint3_linear_1_159)"/>
<path d="M288.104 23.4016L281.995 58.5983H287.505L288.542 52.2129H295.906L296.943 58.5983H303L296.89 23.4016H288.104ZM289.303 47.4341L292.194 29.6331L295.085 47.4341H289.299H289.303Z" fill="url(#paint4_linear_1_159)"/>
<path d="M268.678 34.2617V31.495C268.678 26.0631 266.006 23.4016 259.783 23.4016H250.726V58.5983H256.73V44.2696H258.803C261.532 44.2696 262.73 45.4746 262.73 48.7443V54.2738C262.73 57.138 262.949 57.6936 263.277 58.5983H269.387C268.787 57.2919 268.731 56.0344 268.731 54.3263V48.8944C268.731 45.2231 267.747 42.5578 264.747 41.4016C267.419 40.2454 268.674 37.8804 268.674 34.2617H268.678ZM262.678 35.5192C262.678 38.3347 261.313 39.2394 259.074 39.2394H256.73V28.4319H259.621C261.75 28.4319 262.678 29.5393 262.678 32.0506V35.5192Z" fill="url(#paint5_linear_1_159)"/>
<path d="M203.468 49.9005V32.0994C203.468 26.4686 200.52 23.4016 194.52 23.4016H185.026V58.5983H194.52C200.524 58.5983 203.468 55.5313 203.468 49.9005ZM197.467 50.152C197.467 52.6671 196.322 53.5718 194.411 53.5718H191.026V28.4319H194.411C196.322 28.4319 197.467 29.3365 197.467 31.8517V50.152Z" fill="url(#paint6_linear_1_159)"/>
</g>
<g clip-path="url(#clip1_1_159)">
<path d="M12.7781 29.0933V71.9995L31.1224 83.0924V39.7045L12.7781 29.0933Z" fill="#5447B2"/>
<path d="M12.7781 14.6518V29.0933L35.6557 14.6518V0L12.7781 14.6518Z" fill="#8968FF"/>
<path d="M35.6556 14.6518L54 25.5344V10.6746L35.6556 0V14.6518Z" fill="#52C1B9"/>
<path d="M12.7781 29.0934L35.6557 14.6519L53.9978 25.5344L29.3991 38.8137L12.7781 29.0934Z" fill="#323333"/>
<path d="M12.7781 44.7897V59.2312L35.6557 44.7897V30.1401L12.7781 44.7897Z" fill="#8968FF"/>
<path d="M35.6556 44.7897L54 55.6745V40.8124L35.6556 30.1401V44.7897Z" fill="#52C1B9"/>
<path d="M12.7781 59.2313L35.6557 44.7898L53.9978 55.6746L31.1069 69.5554L12.7781 59.2313Z" fill="#323333"/>
<path d="M12.778 29.1045V59.3035L0 66.6294V36.2201L12.778 29.1045Z" fill="#8968FF"/>
<path d="M0 79.9517L12.778 71.9995L31.1224 83.0924L17.7254 90L0 79.9517Z" fill="#323333"/>
</g>
<defs>
<linearGradient id="paint0_linear_1_159" x1="75.0567" y1="40.9999" x2="313.23" y2="40.9999" gradientUnits="userSpaceOnUse">
<stop stop-color="#604DBC"/>
<stop offset="1" stop-color="#15E8BA"/>
</linearGradient>
<linearGradient id="paint1_linear_1_159" x1="75.0567" y1="40.9999" x2="313.229" y2="40.9999" gradientUnits="userSpaceOnUse">
<stop stop-color="#604DBC"/>
<stop offset="1" stop-color="#15E8BA"/>
</linearGradient>
<linearGradient id="paint2_linear_1_159" x1="75.0567" y1="40.9999" x2="313.229" y2="40.9999" gradientUnits="userSpaceOnUse">
<stop stop-color="#604DBC"/>
<stop offset="1" stop-color="#15E8BA"/>
</linearGradient>
<linearGradient id="paint3_linear_1_159" x1="88" y1="41" x2="88.377" y2="41" gradientUnits="userSpaceOnUse">
<stop stop-color="#604DBC"/>
<stop offset="1" stop-color="#15E8BA"/>
</linearGradient>
<linearGradient id="paint4_linear_1_159" x1="75.0568" y1="40.9999" x2="313.229" y2="40.9999" gradientUnits="userSpaceOnUse">
<stop stop-color="#604DBC"/>
<stop offset="1" stop-color="#15E8BA"/>
</linearGradient>
<linearGradient id="paint5_linear_1_159" x1="75.0568" y1="40.9999" x2="313.229" y2="40.9999" gradientUnits="userSpaceOnUse">
<stop stop-color="#604DBC"/>
<stop offset="1" stop-color="#15E8BA"/>
</linearGradient>
<linearGradient id="paint6_linear_1_159" x1="75.0567" y1="40.9999" x2="313.229" y2="40.9999" gradientUnits="userSpaceOnUse">
<stop stop-color="#604DBC"/>
<stop offset="1" stop-color="#15E8BA"/>
</linearGradient>
<clipPath id="clip0_1_159">
<rect width="215" height="36" fill="white" transform="translate(88 23)"/>
</clipPath>
<clipPath id="clip1_1_159">
<rect width="54" height="90" fill="white"/>
</clipPath>
</defs>
</svg>
